<svg width="891" height="131" viewBox="0 0 891 131" fill="none" xmlns="http://www.w3.org/2000/svg">
<path d="M0 131V0H100.053V9.67384H21.7259V60.0585H93.4785V69.3292H21.7259V121.326H106.342V131H0Z" fill="white"/>
<path d="M123.162 131L182.622 65.9031L125.449 0H151.748L197.773 54.8185L245.799 0H263.808L206.921 63.4846L267.524 131H240.939L192.056 74.7708H191.77L142.315 131H123.162Z" fill="white"/>
<path d="M299.546 131V0H321.272V58.8492H406.174V0H427.9V131H406.174V68.12H321.272V131H299.546Z" fill="white"/>
<path d="M481.842 131V0H503.568V131H481.842Z" fill="white"/>
<path d="M557.496 0H604.378C623.055 0 637.444 3.02308 647.544 9.06923C657.835 14.981 662.981 22.841 662.981 32.6492C662.981 39.9046 660.408 45.9508 655.263 50.7877C650.117 55.6246 643.733 59.4538 636.11 62.2754C647.163 64.4251 655.834 68.1872 662.123 73.5615C668.603 78.9359 671.843 85.721 671.843 93.9169C671.843 105.741 666.221 114.877 654.977 121.326C643.923 127.775 627.152 131 604.664 131H557.496V0ZM612.954 59.2523C616.956 59.2523 621.149 58.4462 625.532 56.8338C630.106 55.2215 634.013 52.5344 637.253 48.7723C640.493 44.8759 642.113 39.8374 642.113 33.6569C642.113 25.461 638.587 19.2805 631.536 15.1154C624.484 10.9503 615.146 8.8677 603.521 8.8677H579.222V59.2523H612.954ZM603.807 122.132C634.871 122.132 650.403 112.526 650.403 93.3123C650.403 84.7133 647.068 78.2641 640.398 73.9646C633.727 69.6651 624.961 67.5154 614.098 67.5154H579.222V122.132H603.807Z" fill="white"/>
<path d="M712.434 131V0H734.16V131H712.434Z" fill="white"/>
<path d="M816.103 131V9.67384H763.218V0H891V9.67384H837.829V131H816.103Z" fill="white"/>
</svg>
